<svg width="253" height="253" viewBox="0 0 253 253" fill="none" xmlns="http://www.w3.org/2000/svg">
<circle cx="126.5" cy="126.5" r="126.5" fill="#8289F1"/>
<path d="M133 176.07L123.798 177.716L122.882 179.577L114.672 182.264L103.555 187L101.4 184.367L52.3338 133.385L52.0259 132.129L39.7389 124.659L39 121.374L40.0057 117.451L90.0295 64.2792L94.1001 60.215L103.726 60.6718L107.147 60L126.986 60.6718L131.775 62.6871L126.302 68.0614L78.8645 116.053L131.748 171.233L133 176.07Z" fill="white"/>
<path d="M124.454 177.446C122.326 182.088 116.587 180.351 114.225 181.855M114.641 182.539C112.184 184.193 103.701 184.152 98.6869 181.5M114.158 181.978C113.594 185.861 101.862 184.269 100.888 182.238M102.385 185L52.7846 132.837M52.7846 133.569L48.1333 128.551M79.0749 115.561L131.796 167.827M132.011 169.912C135.119 173.433 127.602 174.561 125.481 178.745M132.541 169.987C135.132 175.285 125.843 173.761 127.078 177.172M128.39 58.5668C136.963 63.708 131.747 62.6363 127.426 69.7784M128.573 60.8932C133.735 62.5007 133.423 65.3561 124.924 66.5363M72.2802 158.386C66.1755 154.995 66.6299 151.142 60.5523 143.695M43.1809 124.31C34.7495 118.83 41.146 116.246 46.9116 110.406M41.8243 124.989C37.2796 122.337 35.7195 117.596 43.1809 111.424M88.546 62.3718C92.3581 58.8584 95.0713 58.8584 103.889 59.5367M88.39 63.8233C90.3231 60.2149 92.3581 56.1454 98.4628 57.5019M126.024 177.733C123.769 180.631 116.681 178.116 113.205 182.416L126.024 177.733ZM102.11 184.802C80.7999 164.292 63.4766 145.669 51.9859 133.979L102.11 184.802ZM79.0749 114.03C97.6332 134.785 115.158 154.468 132.011 169.057L79.0749 114.03ZM101.963 57C109.994 57.5019 116.777 56.1454 130.248 60.2217L101.963 57ZM107.281 58.187C111.778 59.6656 118.134 58.187 127.311 58.967L107.281 58.187ZM127.555 66.1158C89.3599 104.987 103.564 88.6611 79.3956 115.256L127.555 66.1158ZM128.023 68.232C94.3591 105.238 108.746 87.7455 79.4228 117.155L128.023 68.232ZM55.7295 137.536C50.3031 132.11 48.6073 132.45 41.8446 125.165L55.7295 137.536ZM59.1211 142.284C53.3461 135.859 47.2327 129.746 40.8068 123.971L59.1211 142.284ZM44.5918 110.447C77.632 74.9196 58.3478 92.4662 89.6177 60.5744L44.5918 110.447ZM44.3544 111.132C66.7995 88.4102 37.2593 119.318 88.9055 63.7283L44.3544 111.132Z" stroke="white"/>
<path d="M152.369 59L174.411 59.7341L176.088 60.933L181 64.3006L180.655 169.517C180.649 170.436 180.442 171.343 180.048 172.178C179.227 173.936 173.411 193.542 173.411 193.542C172.721 195.562 169.492 202.297 168.913 202.297L156.853 210.38L145.594 212.858L145.932 215L143 65.8362L147.484 60.5356L154.328 61.0475" fill="white"/>
<path d="M124.454 177.446C122.326 182.088 116.587 180.351 114.225 181.855M114.641 182.539C112.184 184.193 103.701 184.152 98.6869 181.5M114.158 181.978C113.594 185.861 101.862 184.269 100.888 182.238M102.385 185L52.7846 132.837M52.7846 133.569L48.1333 128.551M79.0749 115.561L131.796 167.827M132.011 169.912C135.119 173.433 127.602 174.561 125.481 178.745M132.541 169.987C135.132 175.285 125.843 173.761 127.078 177.172M128.39 58.5668C136.963 63.708 131.747 62.6363 127.426 69.7784M128.573 60.8932C133.735 62.5007 133.423 65.3561 124.924 66.5363M72.2802 158.386C66.1755 154.995 66.6299 151.142 60.5523 143.695M43.1809 124.31C34.7495 118.83 41.146 116.246 46.9116 110.406M41.8243 124.989C37.2796 122.337 35.7195 117.596 43.1809 111.424M88.546 62.3718C92.3581 58.8584 95.0713 58.8584 103.889 59.5367M88.39 63.8233C90.3231 60.2149 92.3581 56.1454 98.4628 57.5019M126.024 177.733C123.769 180.631 116.681 178.116 113.205 182.416L126.024 177.733ZM102.11 184.802C80.7999 164.292 63.4766 145.669 51.9859 133.979L102.11 184.802ZM79.0749 114.03C97.6332 134.785 115.158 154.468 132.011 169.057L79.0749 114.03ZM101.963 57C109.994 57.5019 116.777 56.1454 130.248 60.2217L101.963 57ZM107.281 58.187C111.778 59.6656 118.134 58.187 127.311 58.967L107.281 58.187ZM127.555 66.1158C89.3599 104.987 103.564 88.6611 79.3956 115.256L127.555 66.1158ZM128.023 68.232C94.3591 105.238 108.746 87.7455 79.4228 117.155L128.023 68.232ZM55.7295 137.536C50.3031 132.11 48.6073 132.45 41.8446 125.165L55.7295 137.536ZM59.1211 142.284C53.3461 135.859 47.2327 129.746 40.8068 123.971L59.1211 142.284ZM44.5918 110.447C77.632 74.9196 58.3478 92.4662 89.6177 60.5744L44.5918 110.447ZM44.3544 111.132C66.7995 88.4102 37.2593 119.318 88.9055 63.7283L44.3544 111.132Z" stroke="white"/>
<path d="M152.369 59L174.411 59.7341L176.088 60.933L181 64.3006L180.655 169.517C180.649 170.436 180.442 171.343 180.048 172.178C179.227 173.936 173.411 193.542 173.411 193.542C172.721 195.562 169.492 202.297 168.913 202.297L156.853 210.38L145.594 212.858L145.932 215L143 65.8362L147.484 60.5356L154.328 61.0475" fill="white"/>
<path d="M154.604 57.3058C159.989 57.5029 163.561 58.4748 168.797 59.3447M170.583 58.1418C171.504 58.0238 172.44 58.1022 173.328 58.3716C174.217 58.6411 175.039 59.0956 175.74 59.7052C176.441 60.3149 177.005 61.066 177.395 61.9093C177.786 62.7525 177.994 63.6689 178.005 64.5982M169.456 57C174.134 57.802 177.659 60.3981 181 62.5321M179.01 168.567C180.368 171.177 177.19 179.38 174.834 180.678M177.652 163.245C178.494 181.228 176.973 178.877 172.219 189.071M176.973 178.877C174.936 188.391 166.726 205.735 161.449 205.844M175.615 182.954C170.182 193.828 163.147 206.062 159.996 206.435M162.712 206.741C160.145 208.705 144.343 218.172 143.446 213.537M158.726 206.374C153.205 208.8 143.969 217.187 142 214.462M144.302 63.905C144.981 59.1068 147.847 57.9651 151.229 58.033M144.988 64.6865C143.209 60.9622 148.512 58.5699 154.876 58.4952M153.123 57.8835C158.855 58.2505 162.454 57.6524 171.031 57.8835H153.123ZM179.75 63.3545C181.462 108.753 180.491 107.965 179.56 168.139L179.75 63.3545ZM179.16 63.9593C178.929 102.623 178.739 96.1055 178.936 168.621L179.16 63.9593ZM144.207 213.157C143.351 170.096 143.392 126.743 144.764 63.7351L144.207 213.157ZM144.295 213.49C143.311 157.081 143.263 101.413 144.221 64.204L144.295 213.49Z" stroke="white"/>
</svg>
